<!DOCTYPE svg PUBLIC "-//W3C//DTD SVG 1.1//EN" "http://www.w3.org/Graphics/SVG/1.1/DTD/svg11.dtd">
<!-- Uploaded to: SVG Repo, www.svgrepo.com, Transformed by: SVG Repo Mixer Tools -->
<svg fill="#ffffff" width="800px" height="800px" viewBox="0 0 64 64" version="1.1" xml:space="preserve" xmlns="http://www.w3.org/2000/svg" xmlns:xlink="http://www.w3.org/1999/xlink" stroke="#ffffff">
<g id="SVGRepo_bgCarrier" stroke-width="0"/>
<g id="SVGRepo_tracerCarrier" stroke-linecap="round" stroke-linejoin="round"/>
<g id="SVGRepo_iconCarrier"> <g id="smart_lamp"/> <g id="e-wallet"/> <g id="virtual_reality"/> <g id="payment"/> <g id="cloud_storage"/> <g id="security_camera"/> <g id="smart_home"/> <g id="connection"/> <g id="game"/> <g id="drone"/> <g id="smart_car"/> <g id="camera"/> <g id="online_business"/> <g id="smartwatch"/> <g id="online_shopping"/> <g id="smart_Television"/> <g id="security"> <g> <path d="M61,12.9c0-0.5-0.5-0.9-1-0.9c-18,0-22-8.3-22.1-8.4C37.8,3.2,37.4,3,37,3H27c-0.4,0-0.7,0.2-0.9,0.6C26,3.7,22,12,4,12 c-0.5,0-1,0.4-1,0.9c0,0.4-1.7,39.9,28.7,48c0.1,0,0.2,0,0.3,0s0.2,0,0.3,0C62.7,52.9,61,13.3,61,12.9z M32,59 C6,51.8,4.9,19.9,5,14c16-0.3,21.3-6.9,22.6-9h8.8c1.3,2.1,6.6,8.7,22.6,9C59.1,19.9,58,51.8,32,59z"/> <path d="M32.8,7.4C32.6,7.1,32.3,7,32,7c0,0,0,0,0,0c-0.3,0-0.6,0.1-0.8,0.4C31.2,7.4,24,16,9,16c-0.5,0-1,0.4-1,0.9 c0,0.3-1.4,32.3,23.7,39c0.1,0,0.2,0,0.3,0s0.2,0,0.3,0C57.4,49.3,56,17.3,56,16.9c0-0.5-0.5-0.9-1-0.9C40.1,16,32.8,7.4,32.8,7.4 z M32,54c-21-5.8-22-30.8-22-36c12.6-0.3,19.8-6.3,22-8.5c2.3,2.3,9.4,8.2,22,8.5C54,23.2,53,48.2,32,54z"/> <path d="M32,33c-2.8,0-5,2.2-5,5s2.2,5,5,5s5-2.2,5-5S34.8,33,32,33z M32,41c-1.7,0-3-1.3-3-3s1.3-3,3-3s3,1.3,3,3S33.7,41,32,41z "/> <path d="M32,29c-2.7,0-5.2,1.3-6.7,3.6c-0.3,0.5-0.2,1.1,0.3,1.4c0.5,0.3,1.1,0.2,1.4-0.3c1.1-1.7,3-2.7,5-2.7s3.9,1,5,2.7 c0.2,0.3,0.5,0.4,0.8,0.4c0.2,0,0.4-0.1,0.6-0.2c0.5-0.3,0.6-0.9,0.3-1.4C37.2,30.3,34.7,29,32,29z"/> <path d="M32,25c-3.8,0-7.2,1.7-9.5,4.7c-0.3,0.4-0.3,1.1,0.2,1.4c0.4,0.3,1.1,0.3,1.4-0.2C26,28.4,28.9,27,32,27s6,1.4,7.9,3.9 c0.2,0.3,0.5,0.4,0.8,0.4c0.2,0,0.4-0.1,0.6-0.2c0.4-0.3,0.5-1,0.2-1.4C39.2,26.7,35.8,25,32,25z"/> <path d="M19.7,26.8c-0.4,0.4-0.3,1.1,0.1,1.4c0.4,0.4,1.1,0.3,1.4-0.1C23.9,24.9,27.8,23,32,23s8.1,1.9,10.8,5.1 c0.2,0.2,0.5,0.4,0.8,0.4c0.2,0,0.5-0.1,0.6-0.2c0.4-0.4,0.5-1,0.1-1.4C41.3,23.1,36.8,21,32,21S22.7,23.1,19.7,26.8z"/> </g> </g> <g id="communication"/> <g id="remote_control"/> <g id="satelite_dish"/> </g>
</svg>