<?xml version="1.0" standalone="no"?>
<!DOCTYPE svg PUBLIC "-//W3C//DTD SVG 20010904//EN"
 "http://www.w3.org/TR/2001/REC-SVG-20010904/DTD/svg10.dtd">
<svg version="1.0" xmlns="http://www.w3.org/2000/svg"
 width="256.000000pt" height="256.000000pt" viewBox="0 0 256.000000 256.000000"
 preserveAspectRatio="xMidYMid meet">

<g transform="translate(0.000000,256.000000) scale(0.100000,-0.100000)"
fill="#000000" stroke="none">
<path d="M928 1863 c-39 -42 -68 -106 -157 -352 -45 -122 -89 -237 -97 -253
-9 -16 -13 -32 -10 -36 14 -13 58 47 141 193 49 85 89 154 91 152 1 -1 -6 -65
-16 -142 -11 -77 -24 -221 -31 -320 -24 -372 13 -579 114 -628 35 -18 40 -18
89 -2 46 15 71 35 188 154 222 225 306 339 423 576 106 213 227 523 227 579 0
18 -3 16 -20 -9 -74 -108 -304 -503 -410 -705 -48 -91 -107 -200 -131 -244
-51 -91 -155 -208 -210 -237 -79 -40 -148 -14 -171 64 -17 59 -14 314 6 472 9
72 21 168 27 215 5 47 11 92 14 100 12 41 35 325 29 358 -11 59 -32 91 -60 92
-5 0 -22 -12 -36 -27z"/>
<path d="M1391 526 c-1 -59 1 -67 12 -52 12 16 14 16 31 -3 19 -21 66 -29 66
-11 0 5 -7 7 -15 4 -8 -4 -22 -1 -30 6 -12 10 -10 15 12 34 35 31 23 50 -28
43 -35 -5 -38 -3 -42 22 -2 14 -5 -5 -6 -43z m79 5 c0 -16 -27 -31 -44 -25
-13 5 -14 9 -5 20 13 15 49 19 49 5z"/>
<path d="M1830 526 c0 -36 4 -66 8 -66 5 0 17 17 27 38 l19 37 4 -35 c5 -55
22 -61 22 -8 0 55 -16 70 -42 38 l-18 -22 0 35 c0 20 -4 39 -10 42 -6 4 -10
-18 -10 -59z"/>
<path d="M1307 560 c3 -12 0 -20 -6 -20 -7 0 -9 -5 -4 -12 4 -7 8 -19 9 -26 5
-32 15 -42 41 -41 l28 1 -25 7 c-17 5 -26 15 -28 33 -3 22 1 27 25 31 l28 4
-27 2 c-21 1 -28 6 -28 21 0 11 -4 20 -9 20 -5 0 -7 -9 -4 -20z"/>
<path d="M1531 523 c-19 -66 -8 -81 31 -46 17 15 18 15 18 0 0 -10 5 -17 10
-17 17 0 12 87 -6 94 -32 12 -43 5 -53 -31z m49 9 c0 -11 -9 -27 -20 -37 -22
-20 -25 -10 -10 29 11 30 30 35 30 8z"/>
<path d="M1732 538 c-18 -18 -15 -26 20 -44 30 -16 31 -18 13 -25 -18 -8 -17
-8 4 -6 36 3 36 23 1 36 -36 12 -35 32 1 42 l24 7 -25 1 c-15 1 -31 -4 -38
-11z"/>
<path d="M1640 503 c0 -24 5 -43 10 -43 6 0 10 8 10 18 0 10 9 28 20 40 22 23
13 31 -8 10 -10 -10 -15 -10 -22 2 -7 11 -10 3 -10 -27z"/>
<path d="M1718 463 c7 -3 16 -2 19 1 4 3 -2 6 -13 5 -11 0 -14 -3 -6 -6z"/>
</g>
</svg>
